<svg class="main-svg" xmlns="http://www.w3.org/2000/svg" xmlns:xlink="http://www.w3.org/1999/xlink" width="372" height="336" style="" viewBox="0 0 372 336"><rect x="0" y="0" width="372" height="336" style="fill: rgb(255, 255, 255); fill-opacity: 1;"/><defs id="defs-5b8fb8"><g class="clips"><clipPath id="clip5b8fb8xyplot" class="plotclip"><rect width="201" height="216"/></clipPath><clipPath class="axesclip" id="clip5b8fb8x"><rect x="60" y="0" width="201" height="336"/></clipPath><clipPath class="axesclip" id="clip5b8fb8y"><rect x="0" y="60" width="372" height="216"/></clipPath><clipPath class="axesclip" id="clip5b8fb8xy"><rect x="60" y="60" width="201" height="216"/></clipPath></g><g class="gradients"/></defs><g class="bglayer"/><g class="layer-below"><g class="imagelayer"/><g class="shapelayer"/></g><g class="cartesianlayer"><g class="subplot xy"><g class="layer-subplot"><g class="shapelayer"/><g class="imagelayer"/></g><g class="gridlayer"><g class="x"><path class="xgrid crisp" transform="translate(105.07,0)" d="M0,60v216" style="stroke: rgb(238, 238, 238); stroke-opacity: 1; stroke-width: 1px;"/><path class="xgrid crisp" transform="translate(150.13,0)" d="M0,60v216" style="stroke: rgb(238, 238, 238); stroke-opacity: 1; stroke-width: 1px;"/><path class="xgrid crisp" transform="translate(195.2,0)" d="M0,60v216" style="stroke: rgb(238, 238, 238); stroke-opacity: 1; stroke-width: 1px;"/><path class="xgrid crisp" transform="translate(240.27,0)" d="M0,60v216" style="stroke: rgb(238, 238, 238); stroke-opacity: 1; stroke-width: 1px;"/></g><g class="y"><path class="ygrid crisp" transform="translate(0,220.16)" d="M60,0h201" style="stroke: rgb(238, 238, 238); stroke-opacity: 1; stroke-width: 1px;"/><path class="ygrid crisp" transform="translate(0,175.12)" d="M60,0h201" style="stroke: rgb(238, 238, 238); stroke-opacity: 1; stroke-width: 1px;"/><path class="ygrid crisp" transform="translate(0,130.07999999999998)" d="M60,0h201" style="stroke: rgb(238, 238, 238); stroke-opacity: 1; stroke-width: 1px;"/><path class="ygrid crisp" transform="translate(0,85.03999999999999)" d="M60,0h201" style="stroke: rgb(238, 238, 238); stroke-opacity: 1; stroke-width: 1px;"/></g></g><g class="zerolinelayer"><path class="xzl zl crisp" transform="translate(60,0)" d="M0,60v216" style="stroke: rgb(68, 68, 68); stroke-opacity: 1; stroke-width: 1px;"/><path class="yzl zl crisp" transform="translate(0,265.2)" d="M60,0h201" style="stroke: rgb(68, 68, 68); stroke-opacity: 1; stroke-width: 1px;"/></g><path class="xlines-below"/><path class="ylines-below"/><g class="overlines-below"/><g class="xaxislayer-below"/><g class="yaxislayer-below"/><g class="overaxes-below"/><g class="plot" transform="translate(60,60)" clip-path="url('#clip5b8fb8xyplot')"><g class="scatterlayer mlayer"><g class="trace scatter trace4bcc8d" style="stroke-miterlimit: 2; opacity: 1;"><g class="fills"/><g class="errorbars"/><g class="lines"><path class="js-line" d="M0,205.2L0,56.99L0.9,56.99L1.8,56.99L2.7,47.37L3.61,41.6L4.51,28.12L5.41,26.2L6.31,26.2L9.01,31.97L9.91,28.12L10.82,33.9L11.72,28.12L12.62,31.97L13.52,28.12L16.22,28.12L17.13,31.97L18.03,31.97L18.93,28.12L19.83,30.05L20.73,30.05L21.63,30.05L22.53,24.27L23.43,26.2L24.34,30.05L25.24,31.97L26.14,30.05L27.04,24.27L27.94,30.05L28.84,24.27L29.74,30.05L31.55,30.05L32.45,22.35L36.05,22.35L36.96,30.05L37.86,26.2L38.76,30.05L39.66,33.9L40.56,30.05L42.36,22.35L43.26,26.2L44.17,31.97L45.07,28.12L45.97,28.12L46.87,30.05L47.77,28.12L48.67,33.9L51.38,22.35L52.28,31.97L53.18,30.05L54.08,30.05L54.98,31.97L55.88,26.2L56.78,22.35L57.69,28.12L58.59,26.2L59.49,28.12L60.39,30.05L61.29,28.12L63.09,20.42L64,28.12L64.9,22.35L65.8,28.12L66.7,24.27L67.6,26.2L68.5,26.2L69.4,20.42L70.3,28.12L71.21,26.2L73.91,26.2L74.81,28.12L75.71,20.42L76.61,20.42L77.52,28.12L78.42,24.27L79.32,26.2L80.22,20.42L81.12,24.27L82.02,22.35L82.92,18.5L83.83,26.2L84.73,24.27L85.63,18.5L86.53,26.2L87.43,18.5L88.33,20.42L89.23,28.12L91.04,16.57L91.94,18.5L93.74,26.2L94.64,18.5L95.54,24.27L96.44,22.35L97.35,18.5L98.25,18.5L99.15,16.57L100.05,22.35L100.95,18.5L101.85,22.35L103.65,16.57L104.56,16.57L105.46,26.2L106.36,16.57L107.26,24.27L108.16,18.5L109.06,20.42L109.96,24.27L110.87,16.57L111.77,18.5L112.67,26.2L113.57,20.42L114.47,20.42L115.37,18.5L116.27,24.27L117.17,16.57L118.08,18.5L118.98,16.57L119.88,12.72L120.78,18.5L121.68,14.65L122.58,16.57L123.48,16.57L124.39,22.35L125.29,26.2L126.19,16.57L127.09,14.65L127.99,22.35L128.89,14.65L129.79,16.57L130.7,12.72L131.6,24.27L132.5,24.27L133.4,16.57L134.3,14.65L135.2,18.5L136.1,14.65L137,14.65L137.91,14.65L138.81,12.72L139.71,20.42L140.61,16.57L141.51,14.65L142.41,14.65L143.31,14.65L144.22,16.57L145.12,14.65L146.02,16.57L146.92,18.5L147.82,14.65L148.72,28.12L149.62,16.57L150.52,14.65L151.43,16.57L152.33,14.65L153.23,16.57L154.13,16.57L155.03,14.65L155.93,16.57L156.83,14.65L157.74,14.65L158.64,12.72L159.54,14.65L160.44,12.72L161.34,16.57L162.24,14.65L163.14,16.57L164.04,16.57L164.95,16.57L165.85,14.65L166.75,16.57L167.65,16.57L168.55,16.57L169.45,14.65L170.35,16.57L171.26,16.57L173.06,16.57L173.96,10.8L175.76,16.57L176.66,14.65L177.57,16.57L178.47,14.65L179.37,16.57L180.27,12.72L181.17,14.65L182.07,14.65L182.97,12.72L183.87,12.72L184.78,16.57L185.68,16.57L186.58,12.72L187.48,14.65L188.38,12.72L189.28,12.72L190.18,16.57L191.09,12.72L191.99,14.65L192.89,14.65L193.79,12.72L194.69,12.72L195.59,16.57L196.49,12.72L198.3,12.72L199.2,14.65L200.1,12.72L201,18.5" style="vector-effect: non-scaling-stroke; fill: none; stroke: rgb(31, 119, 180); stroke-opacity: 1; stroke-width: 2px; opacity: 1;"/></g><g class="points"/><g class="text"/></g></g></g><g class="overplot"/><path class="xlines-above crisp" d="M0,0" style="fill: none;"/><path class="ylines-above crisp" d="M0,0" style="fill: none;"/><g class="overlines-above"/><g class="xaxislayer-above"><g class="xtick"><text text-anchor="middle" x="0" y="289" transform="translate(60,0)" style="font-family: 'Open Sans', verdana, arial, sans-serif; font-size: 12px; fill: rgb(68, 68, 68); fill-opacity: 1; white-space: pre;">0</text></g><g class="xtick"><text text-anchor="middle" x="0" y="289" transform="translate(105.07,0)" style="font-family: 'Open Sans', verdana, arial, sans-serif; font-size: 12px; fill: rgb(68, 68, 68); fill-opacity: 1; white-space: pre;">50</text></g><g class="xtick"><text text-anchor="middle" x="0" y="289" transform="translate(150.13,0)" style="font-family: 'Open Sans', verdana, arial, sans-serif; font-size: 12px; fill: rgb(68, 68, 68); fill-opacity: 1; white-space: pre;">100</text></g><g class="xtick"><text text-anchor="middle" x="0" y="289" transform="translate(195.2,0)" style="font-family: 'Open Sans', verdana, arial, sans-serif; font-size: 12px; fill: rgb(68, 68, 68); fill-opacity: 1; white-space: pre;">150</text></g><g class="xtick"><text text-anchor="middle" x="0" y="289" transform="translate(240.27,0)" style="font-family: 'Open Sans', verdana, arial, sans-serif; font-size: 12px; fill: rgb(68, 68, 68); fill-opacity: 1; white-space: pre;">200</text></g></g><g class="yaxislayer-above"><g class="ytick"><text text-anchor="end" x="59" y="4.199999999999999" transform="translate(0,265.2)" style="font-family: 'Open Sans', verdana, arial, sans-serif; font-size: 12px; fill: rgb(68, 68, 68); fill-opacity: 1; white-space: pre;">0</text></g><g class="ytick"><text text-anchor="end" x="59" y="4.199999999999999" transform="translate(0,220.16)" style="font-family: 'Open Sans', verdana, arial, sans-serif; font-size: 12px; fill: rgb(68, 68, 68); fill-opacity: 1; white-space: pre;">0.2</text></g><g class="ytick"><text text-anchor="end" x="59" y="4.199999999999999" transform="translate(0,175.12)" style="font-family: 'Open Sans', verdana, arial, sans-serif; font-size: 12px; fill: rgb(68, 68, 68); fill-opacity: 1; white-space: pre;">0.4</text></g><g class="ytick"><text text-anchor="end" x="59" y="4.199999999999999" transform="translate(0,130.07999999999998)" style="font-family: 'Open Sans', verdana, arial, sans-serif; font-size: 12px; fill: rgb(68, 68, 68); fill-opacity: 1; white-space: pre;">0.6</text></g><g class="ytick"><text text-anchor="end" x="59" y="4.199999999999999" transform="translate(0,85.03999999999999)" style="font-family: 'Open Sans', verdana, arial, sans-serif; font-size: 12px; fill: rgb(68, 68, 68); fill-opacity: 1; white-space: pre;">0.8</text></g></g><g class="overaxes-above"/></g></g><g class="polarlayer"/><g class="ternarylayer"/><g class="geolayer"/><g class="funnelarealayer"/><g class="pielayer"/><g class="treemaplayer"/><g class="sunburstlayer"/><g class="glimages"/><defs id="topdefs-5b8fb8"><g class="clips"/><clipPath id="legend5b8fb8"><rect width="95" height="29" x="0" y="0"/></clipPath></defs><g class="layer-above"><g class="imagelayer"/><g class="shapelayer"/></g><g class="infolayer"><g class="legend" pointer-events="all" transform="translate(265.02,60)"><rect class="bg" shape-rendering="crispEdges" width="95" height="29" x="0" y="0" style="stroke: rgb(68, 68, 68); stroke-opacity: 1; fill: rgb(255, 255, 255); fill-opacity: 1; stroke-width: 0px;"/><g class="scrollbox" transform="" clip-path="url('#legend5b8fb8')"><g class="groups"><g class="traces" transform="translate(0,14.5)" style="opacity: 1;"><text class="legendtext" text-anchor="start" x="40" y="4.680000000000001" style="font-family: 'Open Sans', verdana, arial, sans-serif; font-size: 12px; fill: rgb(68, 68, 68); fill-opacity: 1; white-space: pre;">accuracy</text><g class="layers" style="opacity: 1;"><g class="legendfill"/><g class="legendlines"><path class="js-line" d="M5,0h30" style="fill: none; stroke: rgb(31, 119, 180); stroke-opacity: 1; stroke-width: 2px;"/></g><g class="legendsymbols"><g class="legendpoints"/></g></g><rect class="legendtoggle" x="0" y="-9.5" width="89.75" height="19" style="fill: rgb(0, 0, 0); fill-opacity: 0;"/></g></g></g><rect class="scrollbar" rx="20" ry="3" width="0" height="0" x="0" y="0" style="fill: rgb(128, 139, 164); fill-opacity: 1;"/></g><g class="g-gtitle"><text class="gtitle" x="186" y="30" text-anchor="middle" dy="0em" style="font-family: 'Open Sans', verdana, arial, sans-serif; font-size: 17px; fill: rgb(68, 68, 68); opacity: 1; font-weight: normal; white-space: pre;">accuracy</text></g><g class="g-xtitle"/><g class="g-ytitle"/></g></svg>