<svg class="main-svg" xmlns="http://www.w3.org/2000/svg" xmlns:xlink="http://www.w3.org/1999/xlink" width="372" height="336" style="" viewBox="0 0 372 336"><rect x="0" y="0" width="372" height="336" style="fill: rgb(255, 255, 255); fill-opacity: 1;"/><defs id="defs-a73f04"><g class="clips"><clipPath id="clipa73f04xyplot" class="plotclip"><rect width="196" height="216"/></clipPath><clipPath class="axesclip" id="clipa73f04x"><rect x="60" y="0" width="196" height="336"/></clipPath><clipPath class="axesclip" id="clipa73f04y"><rect x="0" y="60" width="372" height="216"/></clipPath><clipPath class="axesclip" id="clipa73f04xy"><rect x="60" y="60" width="196" height="216"/></clipPath></g><g class="gradients"/></defs><g class="bglayer"/><g class="layer-below"><g class="imagelayer"/><g class="shapelayer"/></g><g class="cartesianlayer"><g class="subplot xy"><g class="layer-subplot"><g class="shapelayer"/><g class="imagelayer"/></g><g class="gridlayer"><g class="x"><path class="xgrid crisp" transform="translate(103.95,0)" d="M0,60v216" style="stroke: rgb(238, 238, 238); stroke-opacity: 1; stroke-width: 1px;"/><path class="xgrid crisp" transform="translate(147.89,0)" d="M0,60v216" style="stroke: rgb(238, 238, 238); stroke-opacity: 1; stroke-width: 1px;"/><path class="xgrid crisp" transform="translate(191.84,0)" d="M0,60v216" style="stroke: rgb(238, 238, 238); stroke-opacity: 1; stroke-width: 1px;"/><path class="xgrid crisp" transform="translate(235.78,0)" d="M0,60v216" style="stroke: rgb(238, 238, 238); stroke-opacity: 1; stroke-width: 1px;"/></g><g class="y"><path class="ygrid crisp" transform="translate(0,213.53)" d="M60,0h196" style="stroke: rgb(238, 238, 238); stroke-opacity: 1; stroke-width: 1px;"/><path class="ygrid crisp" transform="translate(0,161.85)" d="M60,0h196" style="stroke: rgb(238, 238, 238); stroke-opacity: 1; stroke-width: 1px;"/><path class="ygrid crisp" transform="translate(0,110.18)" d="M60,0h196" style="stroke: rgb(238, 238, 238); stroke-opacity: 1; stroke-width: 1px;"/></g></g><g class="zerolinelayer"><path class="xzl zl crisp" transform="translate(60,0)" d="M0,60v216" style="stroke: rgb(68, 68, 68); stroke-opacity: 1; stroke-width: 1px;"/><path class="yzl zl crisp" transform="translate(0,265.2)" d="M60,0h196" style="stroke: rgb(68, 68, 68); stroke-opacity: 1; stroke-width: 1px;"/></g><path class="xlines-below"/><path class="ylines-below"/><g class="overlines-below"/><g class="xaxislayer-below"/><g class="yaxislayer-below"/><g class="overaxes-below"/><g class="plot" transform="translate(60,60)" clip-path="url('#clipa73f04xyplot')"><g class="scatterlayer mlayer"><g class="trace scatter trace1f480c" style="stroke-miterlimit: 2; opacity: 1;"><g class="fills"/><g class="errorbars"/><g class="lines"><path class="js-line" d="M0,205.2L0,13.21L0.88,12.85L1.76,21.1L2.64,18.29L6.15,113.73L7.03,142.67L8.79,173.64L9.67,174.38L12.3,175.42L13.18,175.45L27.25,176.18L28.13,175.93L31.64,176.21L32.52,176.13L43.07,176.45L43.95,176.19L47.46,176.45L48.34,176.5L50.98,176.33L51.86,176.6L58.01,176.54L58.89,176.8L62.4,176.49L63.28,176.74L75.59,176.72L76.47,177L81.74,176.95L82.62,177.13L87.01,177.12L87.89,177.11L92.29,177.05L93.17,177.34L114.26,177.86L115.14,177.89L122.17,177.65L123.05,177.47L132.72,178.2L133.6,177.92L140.63,178.31L141.51,178.09L146.78,178.07L147.66,178.35L149.42,177.86L150.3,178.02L152.93,178.42L153.81,178.21L155.57,178.71L156.45,178.34L159.96,178.34L160.84,178.46L166.12,178.52L167,178.72L185.45,178.76L186.33,178.37L189.85,178.98L190.73,178.81L192.48,178.94L193.36,178.61L195.12,179.1L196,178.83" style="vector-effect: non-scaling-stroke; fill: none; stroke: rgb(31, 119, 180); stroke-opacity: 1; stroke-width: 2px; opacity: 1;"/></g><g class="points"/><g class="text"/></g><g class="trace scatter tracee101fc" style="stroke-miterlimit: 2; opacity: 1;"><g class="fills"/><g class="errorbars"/><g class="lines"><path class="js-line" d="M0,205.2L0,10.8L0.88,12.55L1.76,16.97L2.64,27.29L4.39,71.51L5.27,104.45L7.91,175.16L8.79,177.09L9.67,180.17L10.55,180.05L12.3,178.68L13.18,180.14L15.82,180.65L16.7,178.89L17.58,179.46L18.46,181.44L20.22,180.36L21.09,181.6L24.61,180.63L25.49,181.27L28.13,181.62L29,180.87L29.88,180.96L30.76,179.26L31.64,181.65L32.52,180.95L33.4,181.9L34.28,181.33L36.91,181.3L37.79,182.01L39.55,180.4L40.43,182.14L42.19,182.05L43.07,182.07L43.95,181.43L44.83,181.88L45.7,181.73L46.58,182.48L49.22,182.06L50.1,182.38L50.98,181.5L51.86,181.84L54.49,180.8L55.37,182.43L58.01,181.94L58.89,180.18L60.65,183.05L61.52,182.69L63.28,181.59L64.16,180.79L65.92,182.47L66.8,181.84L67.68,182.48L68.56,181.46L69.43,182.15L70.31,181.52L72.07,182.93L72.95,181.87L74.71,183.16L75.59,181.91L77.35,181.58L78.22,182.93L79.1,181.74L79.98,183.83L81.74,181.53L82.62,181.84L83.5,182.6L84.38,181.68L85.26,182.77L86.13,182.52L87.01,181.95L87.89,182.41L89.65,183.27L90.53,181.46L91.41,181.78L92.29,183.45L93.17,181.29L94.04,183.34L94.92,182.93L95.8,183.52L96.68,182.82L97.56,183.2L100.2,184.52L101.08,182.84L101.96,182.72L102.83,181.79L103.71,183.2L104.59,181.25L105.47,183.2L106.35,182.92L107.23,182.68L108.11,183.36L108.99,183.52L109.87,182.28L110.74,183L111.62,182.55L112.5,183.5L113.38,182.42L116.02,184.58L116.9,183.2L117.78,182.19L118.65,183.98L121.29,183.38L122.17,181.59L123.05,184.67L123.93,183.86L124.81,181.81L125.69,184.47L127.44,184.42L128.32,182.33L129.2,184.58L130.08,183.6L130.96,184.59L131.84,182.84L132.72,184.31L133.6,183.63L136.23,182.59L137.11,183.7L137.99,185.01L138.87,184.27L140.63,184.03L141.51,182.75L142.39,183.05L143.26,184.65L145.02,181.49L145.9,184.05L148.54,184.11L149.42,182.28L151.17,185.63L152.05,182.75L152.93,185.43L153.81,184.55L154.69,183.85L155.57,184.9L156.45,184.53L157.33,182.39L159.09,182.47L159.96,183.88L160.84,183.2L161.72,184.37L164.36,182.89L165.24,184.78L166.12,185.58L167,183.45L167.87,183.33L168.75,181.91L170.51,184.52L171.39,184.72L172.27,184.78L173.15,184.03L174.03,183.54L174.91,184.68L175.78,185.05L176.66,184.49L177.54,183.2L178.42,183.42L179.3,184.72L180.18,182.82L181.94,184.23L182.82,184.9L185.45,183.49L186.33,185.02L187.21,185.39L188.09,184L190.73,185.58L191.61,183.72L193.36,185.08L194.24,183.12L195.12,183.49L196,182.39" style="vector-effect: non-scaling-stroke; fill: none; stroke: rgb(255, 127, 14); stroke-opacity: 1; stroke-width: 2px; opacity: 1;"/></g><g class="points"/><g class="text"/></g></g></g><g class="overplot"/><path class="xlines-above crisp" d="M0,0" style="fill: none;"/><path class="ylines-above crisp" d="M0,0" style="fill: none;"/><g class="overlines-above"/><g class="xaxislayer-above"><g class="xtick"><text text-anchor="middle" x="0" y="289" transform="translate(60,0)" style="font-family: 'Open Sans', verdana, arial, sans-serif; font-size: 12px; fill: rgb(68, 68, 68); fill-opacity: 1; white-space: pre;">0</text></g><g class="xtick"><text text-anchor="middle" x="0" y="289" transform="translate(103.95,0)" style="font-family: 'Open Sans', verdana, arial, sans-serif; font-size: 12px; fill: rgb(68, 68, 68); fill-opacity: 1; white-space: pre;">50</text></g><g class="xtick"><text text-anchor="middle" x="0" y="289" transform="translate(147.89,0)" style="font-family: 'Open Sans', verdana, arial, sans-serif; font-size: 12px; fill: rgb(68, 68, 68); fill-opacity: 1; white-space: pre;">100</text></g><g class="xtick"><text text-anchor="middle" x="0" y="289" transform="translate(191.84,0)" style="font-family: 'Open Sans', verdana, arial, sans-serif; font-size: 12px; fill: rgb(68, 68, 68); fill-opacity: 1; white-space: pre;">150</text></g><g class="xtick"><text text-anchor="middle" x="0" y="289" transform="translate(235.78,0)" style="font-family: 'Open Sans', verdana, arial, sans-serif; font-size: 12px; fill: rgb(68, 68, 68); fill-opacity: 1; white-space: pre;">200</text></g></g><g class="yaxislayer-above"><g class="ytick"><text text-anchor="end" x="59" y="4.199999999999999" transform="translate(0,265.2)" style="font-family: 'Open Sans', verdana, arial, sans-serif; font-size: 12px; fill: rgb(68, 68, 68); fill-opacity: 1; white-space: pre;">0</text></g><g class="ytick"><text text-anchor="end" x="59" y="4.199999999999999" transform="translate(0,213.53)" style="font-family: 'Open Sans', verdana, arial, sans-serif; font-size: 12px; fill: rgb(68, 68, 68); fill-opacity: 1; white-space: pre;">1</text></g><g class="ytick"><text text-anchor="end" x="59" y="4.199999999999999" transform="translate(0,161.85)" style="font-family: 'Open Sans', verdana, arial, sans-serif; font-size: 12px; fill: rgb(68, 68, 68); fill-opacity: 1; white-space: pre;">2</text></g><g class="ytick"><text text-anchor="end" x="59" y="4.199999999999999" transform="translate(0,110.18)" style="font-family: 'Open Sans', verdana, arial, sans-serif; font-size: 12px; fill: rgb(68, 68, 68); fill-opacity: 1; white-space: pre;">3</text></g></g><g class="overaxes-above"/></g></g><g class="polarlayer"/><g class="ternarylayer"/><g class="geolayer"/><g class="funnelarealayer"/><g class="pielayer"/><g class="treemaplayer"/><g class="sunburstlayer"/><g class="glimages"/><defs id="topdefs-a73f04"><g class="clips"/><clipPath id="legenda73f04"><rect width="100" height="48" x="0" y="0"/></clipPath></defs><g class="layer-above"><g class="imagelayer"/><g class="shapelayer"/></g><g class="infolayer"><g class="legend" pointer-events="all" transform="translate(259.92,60)"><rect class="bg" shape-rendering="crispEdges" width="100" height="48" x="0" y="0" style="stroke: rgb(68, 68, 68); stroke-opacity: 1; fill: rgb(255, 255, 255); fill-opacity: 1; stroke-width: 0px;"/><g class="scrollbox" transform="" clip-path="url('#legenda73f04')"><g class="groups"><g class="traces" transform="translate(0,14.5)" style="opacity: 1;"><text class="legendtext" text-anchor="start" x="40" y="4.680000000000001" style="font-family: 'Open Sans', verdana, arial, sans-serif; font-size: 12px; fill: rgb(68, 68, 68); fill-opacity: 1; white-space: pre;">train_loss</text><g class="layers" style="opacity: 1;"><g class="legendfill"/><g class="legendlines"><path class="js-line" d="M5,0h30" style="fill: none; stroke: rgb(31, 119, 180); stroke-opacity: 1; stroke-width: 2px;"/></g><g class="legendsymbols"><g class="legendpoints"/></g></g><rect class="legendtoggle" x="0" y="-9.5" width="94.609375" height="19" style="fill: rgb(0, 0, 0); fill-opacity: 0;"/></g><g class="traces" transform="translate(0,33.5)" style="opacity: 1;"><text class="legendtext" text-anchor="start" x="40" y="4.680000000000001" style="font-family: 'Open Sans', verdana, arial, sans-serif; font-size: 12px; fill: rgb(68, 68, 68); fill-opacity: 1; white-space: pre;">eval_loss</text><g class="layers" style="opacity: 1;"><g class="legendfill"/><g class="legendlines"><path class="js-line" d="M5,0h30" style="fill: none; stroke: rgb(255, 127, 14); stroke-opacity: 1; stroke-width: 2px;"/></g><g class="legendsymbols"><g class="legendpoints"/></g></g><rect class="legendtoggle" x="0" y="-9.5" width="94.609375" height="19" style="fill: rgb(0, 0, 0); fill-opacity: 0;"/></g></g></g><rect class="scrollbar" rx="20" ry="3" width="0" height="0" x="0" y="0" style="fill: rgb(128, 139, 164); fill-opacity: 1;"/></g><g class="g-gtitle"><text class="gtitle" x="186" y="30" text-anchor="middle" dy="0em" style="font-family: 'Open Sans', verdana, arial, sans-serif; font-size: 17px; fill: rgb(68, 68, 68); opacity: 1; font-weight: normal; white-space: pre;">train&amp;eval loss</text></g><g class="g-xtitle"/><g class="g-ytitle"/></g></svg>